<svg version="1.1" id="Layer_1" xmlns="http://www.w3.org/2000/svg" xmlns:xlink="http://www.w3.org/1999/xlink" x="0px" y="0px"
	 width="100%" viewBox="0 0 2560 866" enable-background="new 0 0 2560 866" xml:space="preserve">
<path fill="#FFFFFF" opacity="1.000000" stroke="none" 
	d="
M1640.000000,867.000000 
	C1093.333374,867.000000 547.166809,867.000000 1.000147,867.000000 
	C1.000098,578.333435 1.000098,289.666870 1.000049,1.000224 
	C854.333191,1.000149 1707.666382,1.000149 2560.999512,1.000075 
	C2560.999756,289.666412 2560.999756,578.332825 2561.000000,866.999634 
	C2254.166748,867.000000 1947.333374,867.000000 1640.000000,867.000000 
M388.378510,649.944397 
	C415.675964,645.952209 442.265747,639.222717 467.391235,627.732056 
	C525.328491,601.235474 571.492737,561.395203 601.497375,504.714508 
	C631.357056,448.307770 639.407959,387.442627 634.678284,324.466675 
	C634.123047,317.073761 632.761414,309.741394 631.786743,302.478760 
	C531.867981,302.478760 432.647278,302.478760 333.470947,302.478760 
	C333.470947,332.072021 333.470947,361.293152 333.470947,391.001160 
	C403.950012,391.001160 474.034698,391.001160 544.596741,391.001160 
	C544.011414,395.151276 543.538025,398.760956 542.989563,402.359253 
	C533.270569,466.125275 498.509308,511.790375 441.686127,540.917908 
	C398.245636,563.185547 351.761200,568.783081 303.751160,563.091248 
	C253.844559,557.174622 210.027054,537.078674 174.196579,502.013031 
	C111.040794,440.205414 89.319191,364.675446 106.328011,278.606476 
	C117.792053,220.595535 148.523254,173.634552 196.282578,138.582062 
	C242.394562,104.738609 294.446533,90.791641 351.462250,94.731056 
	C397.134399,97.886703 438.012573,113.438072 474.186951,141.398712 
	C480.596100,146.352600 486.697784,151.704285 492.469482,156.481644 
	C513.287476,135.672028 533.878235,115.089554 554.649780,94.326363 
	C554.283997,93.928642 553.673401,93.172745 552.971252,92.514519 
	C531.357483,72.252602 507.907257,54.464451 481.528992,40.855965 
	C408.120422,2.984620 331.039825,-4.033315 251.596115,15.999478 
	C179.101257,34.280025 119.243958,73.448166 73.452515,132.468613 
	C11.533315,212.276047 -10.494563,302.575897 13.096849,401.040161 
	C39.691208,512.037903 109.254646,587.904907 214.298477,631.082947 
	C269.971588,653.967224 328.166626,658.276367 388.378510,649.944397 
M1671.974121,267.474060 
	C1598.614502,318.548401 1566.614624,388.716431 1577.565796,477.251068 
	C1583.100830,521.999939 1603.319946,560.756287 1635.267822,592.730225 
	C1677.530640,635.027527 1728.204468,657.197510 1788.696777,652.898926 
	C1825.391724,650.291321 1857.378540,636.470215 1882.714478,608.955200 
	C1883.907471,607.659668 1885.573975,606.800171 1887.981445,605.031128 
	C1888.133423,632.947998 1889.543457,659.429810 1881.608887,685.227295 
	C1876.692017,701.213135 1869.459961,715.934082 1857.636719,727.937744 
	C1830.797119,755.186646 1797.195557,761.644897 1760.984253,757.329163 
	C1730.236206,753.664612 1706.307007,737.299377 1688.046997,712.751587 
	C1681.638916,704.137146 1676.541016,694.548035 1670.603394,685.016541 
	C1644.779297,695.765808 1618.431641,706.732910 1592.399658,717.568665 
	C1592.261230,718.350098 1592.169067,718.531677 1592.215820,718.664673 
	C1592.435181,719.290527 1592.665771,719.915344 1592.940430,720.518677 
	C1614.355347,767.559082 1647.846313,802.862183 1695.274902,823.955078 
	C1740.035156,843.861389 1786.560303,845.317749 1833.650146,834.155029 
	C1885.035156,821.974182 1924.116943,793.136475 1948.881104,746.035950 
	C1967.093018,711.397522 1974.697510,673.915039 1974.853638,635.225464 
	C1975.367920,507.747253 1975.109863,380.265930 1975.138428,252.785812 
	C1975.138672,251.670029 1975.004028,250.554214 1974.927734,249.364258 
	C1945.858154,249.364258 1917.150146,249.364258 1888.085571,249.364258 
	C1888.085571,260.680176 1888.085571,271.636780 1888.085571,283.816071 
	C1885.887451,282.488495 1884.224731,281.906036 1883.143921,280.769989 
	C1853.001099,249.086716 1815.173828,236.085358 1772.437256,236.369476 
	C1736.261963,236.609970 1703.065552,247.736176 1671.974121,267.474060 
M1540.954346,420.650726 
	C1540.294189,416.039276 1539.763916,411.404938 1538.953735,406.819977 
	C1531.782715,366.234436 1514.951416,330.163757 1485.967407,300.773956 
	C1431.132935,245.172058 1364.267700,226.349243 1288.385254,241.137436 
	C1228.544678,252.799316 1182.373291,285.692749 1151.493652,338.484314 
	C1125.041748,383.706482 1117.729492,432.799194 1127.044189,484.078735 
	C1138.318237,546.144165 1171.438965,593.690918 1225.972656,625.388611 
	C1273.615479,653.080933 1325.224121,660.804138 1378.786255,648.703064 
	C1452.837158,631.972900 1503.878540,587.608093 1530.297363,516.046326 
	C1541.558594,485.541992 1544.132568,453.815002 1540.954346,420.650726 
M955.340210,249.154404 
	C916.088135,235.284149 875.991455,232.270432 835.346313,241.164474 
	C775.227844,254.319748 728.925049,287.188141 698.289124,340.809692 
	C675.583252,380.551422 668.256042,423.749359 672.998962,469.022827 
	C677.784546,514.703491 695.480225,554.862549 727.096069,588.251770 
	C787.570190,652.117859 883.184875,671.519104 964.366028,637.259155 
	C1055.759277,598.689392 1105.993164,503.868439 1086.186035,403.035156 
	C1071.499634,328.270874 1026.940552,277.345093 955.340210,249.154404 
M2459.636719,524.112732 
	C2428.515137,563.389587 2387.951904,577.874451 2339.112305,568.966064 
	C2303.407959,562.453491 2279.789307,540.111145 2263.389648,508.307129 
	C2356.538574,469.732452 2449.322266,431.309113 2543.098877,392.474518 
	C2535.150146,374.733154 2528.459229,356.887604 2519.484131,340.276093 
	C2482.361084,271.567169 2416.423096,226.466019 2328.245850,238.021820 
	C2276.854980,244.756729 2234.152344,268.169495 2202.445801,309.145996 
	C2158.806152,365.544464 2146.834961,430.036804 2164.221191,498.141357 
	C2185.716309,582.341858 2241.228027,633.488037 2326.808838,650.175720 
	C2370.822754,658.758179 2413.726074,653.144592 2454.440186,633.853027 
	C2488.951904,617.500488 2516.416504,592.837769 2538.512939,561.190125 
	C2514.755371,545.349915 2491.247070,529.675720 2467.464355,513.818726 
	C2464.875977,517.233032 2462.479980,520.393494 2459.636719,524.112732 
M2029.252686,307.499969 
	C2029.252686,418.581787 2029.252686,529.663574 2029.252686,640.579712 
	C2059.545166,640.579712 2089.103516,640.579712 2118.488525,640.579712 
	C2118.488525,436.599243 2118.488525,233.042648 2118.488525,29.411423 
	C2088.674805,29.411423 2059.250000,29.411423 2029.252930,29.411423 
	C2029.252930,121.954376 2029.252930,214.227158 2029.252686,307.499969 
z"/>
<path fill="#4385F4" opacity="1.000000" stroke="none" 
	d="
M387.935791,649.975830 
	C328.166626,658.276367 269.971588,653.967224 214.298477,631.082947 
	C109.254646,587.904907 39.691208,512.037903 13.096849,401.040161 
	C-10.494563,302.575897 11.533315,212.276047 73.452515,132.468613 
	C119.243958,73.448166 179.101257,34.280025 251.596115,15.999478 
	C331.039825,-4.033315 408.120422,2.984620 481.528992,40.855965 
	C507.907257,54.464451 531.357483,72.252602 552.971252,92.514519 
	C553.673401,93.172745 554.283997,93.928642 554.649780,94.326363 
	C533.878235,115.089554 513.287476,135.672028 492.469482,156.481644 
	C486.697784,151.704285 480.596100,146.352600 474.186951,141.398712 
	C438.012573,113.438072 397.134399,97.886703 351.462250,94.731056 
	C294.446533,90.791641 242.394562,104.738609 196.282578,138.582062 
	C148.523254,173.634552 117.792053,220.595535 106.328011,278.606476 
	C89.319191,364.675446 111.040794,440.205414 174.196579,502.013031 
	C210.027054,537.078674 253.844559,557.174622 303.751160,563.091248 
	C351.761200,568.783081 398.245636,563.185547 441.686127,540.917908 
	C498.509308,511.790375 533.270569,466.125275 542.989563,402.359253 
	C543.538025,398.760956 544.011414,395.151276 544.596741,391.001160 
	C474.034698,391.001160 403.950012,391.001160 333.470947,391.001160 
	C333.470947,361.293152 333.470947,332.072021 333.470947,302.478760 
	C432.647278,302.478760 531.867981,302.478760 631.786743,302.478760 
	C632.761414,309.741394 634.123047,317.073761 634.678284,324.466675 
	C639.407959,387.442627 631.357056,448.307770 601.497375,504.714508 
	C571.492737,561.395203 525.328491,601.235474 467.391235,627.732056 
	C442.265747,639.222717 415.675964,645.952209 387.935791,649.975830 
z"/>
<path fill="#4385F4" opacity="1.000000" stroke="none" 
	d="
M1672.273315,267.270325 
	C1703.065552,247.736176 1736.261963,236.609970 1772.437256,236.369476 
	C1815.173828,236.085358 1853.001099,249.086716 1883.143921,280.769989 
	C1884.224731,281.906036 1885.887451,282.488495 1888.085571,283.816071 
	C1888.085571,271.636780 1888.085571,260.680176 1888.085571,249.364258 
	C1917.150146,249.364258 1945.858154,249.364258 1974.927734,249.364258 
	C1975.004028,250.554214 1975.138672,251.670029 1975.138428,252.785812 
	C1975.109863,380.265930 1975.367920,507.747253 1974.853638,635.225464 
	C1974.697510,673.915039 1967.093018,711.397522 1948.881104,746.035950 
	C1924.116943,793.136475 1885.035156,821.974182 1833.650146,834.155029 
	C1786.560303,845.317749 1740.035156,843.861389 1695.274902,823.955078 
	C1647.846313,802.862183 1614.355347,767.559082 1592.940430,720.518677 
	C1592.665771,719.915344 1592.435181,719.290527 1592.215820,718.664673 
	C1592.169067,718.531677 1592.261230,718.350098 1592.399658,717.568665 
	C1618.431641,706.732910 1644.779297,695.765808 1670.603394,685.016541 
	C1676.541016,694.548035 1681.638916,704.137146 1688.046997,712.751587 
	C1706.307007,737.299377 1730.236206,753.664612 1760.984253,757.329163 
	C1797.195557,761.644897 1830.797119,755.186646 1857.636719,727.937744 
	C1869.459961,715.934082 1876.692017,701.213135 1881.608887,685.227295 
	C1889.543457,659.429810 1888.133423,632.947998 1887.981445,605.031128 
	C1885.573975,606.800171 1883.907471,607.659668 1882.714478,608.955200 
	C1857.378540,636.470215 1825.391724,650.291321 1788.696777,652.898926 
	C1728.204468,657.197510 1677.530640,635.027527 1635.267822,592.730225 
	C1603.319946,560.756287 1583.100830,521.999939 1577.565796,477.251068 
	C1566.614624,388.716431 1598.614502,318.548401 1672.273315,267.270325 
M1749.498047,323.918701 
	C1727.333862,331.171753 1709.030029,344.031067 1694.790283,362.422150 
	C1672.492188,391.220886 1664.355469,424.110870 1667.825439,460.035522 
	C1671.214478,495.120667 1685.877686,524.479980 1713.407104,546.900452 
	C1761.607422,586.155701 1831.211914,577.746277 1868.578613,528.287354 
	C1904.782593,480.367493 1903.218018,404.267487 1865.073120,357.792999 
	C1836.869019,323.429718 1792.215942,310.171722 1749.498047,323.918701 
z"/>
<path fill="#FBBC06" opacity="1.000000" stroke="none" 
	d="
M1540.986572,421.105103 
	C1544.132568,453.815002 1541.558594,485.541992 1530.297363,516.046326 
	C1503.878540,587.608093 1452.837158,631.972900 1378.786255,648.703064 
	C1325.224121,660.804138 1273.615479,653.080933 1225.972656,625.388611 
	C1171.438965,593.690918 1138.318237,546.144165 1127.044189,484.078735 
	C1117.729492,432.799194 1125.041748,383.706482 1151.493652,338.484314 
	C1182.373291,285.692749 1228.544678,252.799316 1288.385254,241.137436 
	C1364.267700,226.349243 1431.132935,245.172058 1485.967407,300.773956 
	C1514.951416,330.163757 1531.782715,366.234436 1538.953735,406.819977 
	C1539.763916,411.404938 1540.294189,416.039276 1540.986572,421.105103 
M1351.380005,569.993713 
	C1374.890869,566.000122 1395.302490,555.749939 1412.348145,539.123779 
	C1453.092773,499.381744 1462.612427,432.267578 1435.011963,380.629944 
	C1394.351685,304.558807 1291.019897,296.926239 1239.655518,366.200073 
	C1205.089600,412.818176 1206.890381,485.272247 1244.452393,529.512817 
	C1272.199341,562.193237 1307.823120,575.726807 1351.380005,569.993713 
z"/>
<path fill="#EA4436" opacity="1.000000" stroke="none" 
	d="
M955.701050,249.302628 
	C1026.940552,277.345093 1071.499634,328.270874 1086.186035,403.035156 
	C1105.993164,503.868439 1055.759277,598.689392 964.366028,637.259155 
	C883.184875,671.519104 787.570190,652.117859 727.096069,588.251770 
	C695.480225,554.862549 677.784546,514.703491 672.998962,469.022827 
	C668.256042,423.749359 675.583252,380.551422 698.289124,340.809692 
	C728.925049,287.188141 775.227844,254.319748 835.346313,241.164474 
	C875.991455,232.270432 916.088135,235.284149 955.701050,249.302628 
M782.167542,374.718811 
	C759.119263,415.605133 756.409607,458.085876 775.022278,500.886505 
	C811.332825,584.384399 921.419861,596.602173 974.287476,523.054626 
	C1000.656006,486.371796 1005.577026,445.148346 992.102356,402.657928 
	C977.023132,355.107666 944.191406,325.488495 894.150452,319.653076 
	C846.334900,314.077179 809.000427,333.892487 782.167542,374.718811 
z"/>
<path fill="#EA4436" opacity="1.000000" stroke="none" 
	d="
M2459.860352,523.833313 
	C2462.479980,520.393494 2464.875977,517.233032 2467.464355,513.818726 
	C2491.247070,529.675720 2514.755371,545.349915 2538.512939,561.190125 
	C2516.416504,592.837769 2488.951904,617.500488 2454.440186,633.853027 
	C2413.726074,653.144592 2370.822754,658.758179 2326.808838,650.175720 
	C2241.228027,633.488037 2185.716309,582.341858 2164.221191,498.141357 
	C2146.834961,430.036804 2158.806152,365.544464 2202.445801,309.145996 
	C2234.152344,268.169495 2276.854980,244.756729 2328.245850,238.021820 
	C2416.423096,226.466019 2482.361084,271.567169 2519.484131,340.276093 
	C2528.459229,356.887604 2535.150146,374.733154 2543.098877,392.474518 
	C2449.322266,431.309113 2356.538574,469.732452 2263.389648,508.307129 
	C2279.789307,540.111145 2303.407959,562.453491 2339.112305,568.966064 
	C2387.951904,577.874451 2428.515137,563.389587 2459.860352,523.833313 
M2424.180664,365.681702 
	C2427.608154,364.176636 2431.035645,362.671570 2434.997803,360.931702 
	C2432.803955,357.041229 2431.275146,353.489532 2429.026611,350.474548 
	C2409.031738,323.663849 2380.809326,313.972351 2349.324219,317.744812 
	C2301.491943,323.476013 2269.586670,351.051117 2253.796631,396.665436 
	C2249.211182,409.912109 2247.744873,423.748718 2248.255859,438.658447 
	C2307.139648,414.225739 2365.302734,390.091980 2424.180664,365.681702 
z"/>
<path fill="#36A954" opacity="1.000000" stroke="none" 
	d="
M2029.252808,306.999939 
	C2029.252930,214.227158 2029.252930,121.954376 2029.252930,29.411423 
	C2059.250000,29.411423 2088.674805,29.411423 2118.488525,29.411423 
	C2118.488525,233.042648 2118.488525,436.599243 2118.488525,640.579712 
	C2089.103516,640.579712 2059.545166,640.579712 2029.252686,640.579712 
	C2029.252686,529.663574 2029.252686,418.581787 2029.252808,306.999939 
z"/>
<path fill="#FFFFFF" opacity="1.000000" stroke="none" 
	d="
M1749.882080,323.812012 
	C1792.215942,310.171722 1836.869019,323.429718 1865.073120,357.792999 
	C1903.218018,404.267487 1904.782593,480.367493 1868.578613,528.287354 
	C1831.211914,577.746277 1761.607422,586.155701 1713.407104,546.900452 
	C1685.877686,524.479980 1671.214478,495.120667 1667.825439,460.035522 
	C1664.355469,424.110870 1672.492188,391.220886 1694.790283,362.422150 
	C1709.030029,344.031067 1727.333862,331.171753 1749.882080,323.812012 
z"/>
<path fill="#FFFFFE" opacity="1.000000" stroke="none" 
	d="
M1350.943481,570.039673 
	C1307.823120,575.726807 1272.199341,562.193237 1244.452393,529.512817 
	C1206.890381,485.272247 1205.089600,412.818176 1239.655518,366.200073 
	C1291.019897,296.926239 1394.351685,304.558807 1435.011963,380.629944 
	C1462.612427,432.267578 1453.092773,499.381744 1412.348145,539.123779 
	C1395.302490,555.749939 1374.890869,566.000122 1350.943481,570.039673 
z"/>
<path fill="#FFFFFF" opacity="1.000000" stroke="none" 
	d="
M782.370361,374.416687 
	C809.000427,333.892487 846.334900,314.077179 894.150452,319.653076 
	C944.191406,325.488495 977.023132,355.107666 992.102356,402.657928 
	C1005.577026,445.148346 1000.656006,486.371796 974.287476,523.054626 
	C921.419861,596.602173 811.332825,584.384399 775.022278,500.886505 
	C756.409607,458.085876 759.119263,415.605133 782.370361,374.416687 
z"/>
<path fill="#FFFEFE" opacity="1.000000" stroke="none" 
	d="
M2423.823242,365.819977 
	C2365.302734,390.091980 2307.139648,414.225739 2248.255859,438.658447 
	C2247.744873,423.748718 2249.211182,409.912109 2253.796631,396.665436 
	C2269.586670,351.051117 2301.491943,323.476013 2349.324219,317.744812 
	C2380.809326,313.972351 2409.031738,323.663849 2429.026611,350.474548 
	C2431.275146,353.489532 2432.803955,357.041229 2434.997803,360.931702 
	C2431.035645,362.671570 2427.608154,364.176636 2423.823242,365.819977 
z"/>
</svg>